<?xml version="1.0" encoding="UTF-8"?>
<svg version="1.1" xmlns="http://www.w3.org/2000/svg" width="92" height="132">
<path d="M0 0 C8.7395494 7.22469417 14.46187819 17.08394876 16.65625 28.25 C17.5027741 42.85254067 15.78872166 54.31136886 6.65625 66.25 C4.4268546 68.7521764 2.15709814 71.1992447 -0.14550781 73.63305664 C-9.8185374 83.97404903 -17.23651889 96.29413227 -21.93359375 109.65625 C-22.19245361 110.38996826 -22.45131348 111.12368652 -22.71801758 111.87963867 C-23.20911633 113.30757815 -23.67993658 114.74269448 -24.12768555 116.18481445 C-24.7890625 118.14453125 -24.7890625 118.14453125 -26.34375 121.25 C-29.0234375 122.19921875 -29.0234375 122.19921875 -31.34375 122.25 C-33.32644069 117.82547604 -35.2923753 113.39692411 -37.16796875 108.92578125 C-43.39358802 94.23065641 -51.0514361 82.47080141 -61.5390625 70.4921875 C-71.63465781 58.90896261 -76.3729473 47.86115838 -75.72265625 32.4375 C-74.79089365 19.63233626 -69.24769562 9.71480742 -60.09375 0.9375 C-42.80508944 -13.61672955 -17.80367332 -13.29340941 0 0 Z " fill="#4285F3" transform="translate(75.34375,9.75)"/>
<path d="M0 0 C8.7395494 7.22469417 14.46187819 17.08394876 16.65625 28.25 C17.5027741 42.85254067 15.78872166 54.31136886 6.65625 66.25 C4.4268546 68.7521764 2.15709814 71.1992447 -0.14550781 73.63305664 C-9.8185374 83.97404903 -17.23651889 96.29413227 -21.93359375 109.65625 C-22.19245361 110.38996826 -22.45131348 111.12368652 -22.71801758 111.87963867 C-23.20911633 113.30757815 -23.67993658 114.74269448 -24.12768555 116.18481445 C-24.7890625 118.14453125 -24.7890625 118.14453125 -26.34375 121.25 C-29.0234375 122.19921875 -29.0234375 122.19921875 -31.34375 122.25 C-33.32644069 117.82547604 -35.2923753 113.39692411 -37.16796875 108.92578125 C-43.39358802 94.23065641 -51.0514361 82.47080141 -61.5390625 70.4921875 C-71.63465781 58.90896261 -76.3729473 47.86115838 -75.72265625 32.4375 C-74.79089365 19.63233626 -69.24769562 9.71480742 -60.09375 0.9375 C-42.80508944 -13.61672955 -17.80367332 -13.29340941 0 0 Z M-63.55078125 10.8125 C-71.30067636 21.34830511 -72.55785944 32.51199259 -71.34375 45.25 C-69.24674195 55.4322637 -63.53455236 62.2775182 -56.73388672 69.72412109 C-44.27969407 83.39442388 -37.1460318 98.28047784 -30.34375 115.25 C-29.68375 115.25 -29.02375 115.25 -28.34375 115.25 C-28.14330078 114.71221924 -27.94285156 114.17443848 -27.73632812 113.62036133 C-21.02588664 95.79242253 -12.84853741 81.30001222 0.28125 67.3125 C9.95471156 56.67002156 13.45705329 45.45185035 13.03515625 31.296875 C12.30384997 20.17263186 5.73993969 10.91051135 -2.15625 3.5 C-6.18999816 0.11411961 -10.41598617 -1.96347394 -15.34375 -3.75 C-16.26542969 -4.10707031 -17.18710937 -4.46414063 -18.13671875 -4.83203125 C-35.486801 -9.79825455 -52.29040487 -2.49317428 -63.55078125 10.8125 Z " fill="#3878C7" transform="translate(75.34375,9.75)"/>
<path d="M0 0 C5.61 0 11.22 0 17 0 C17.65548828 2.19462891 17.65548828 2.19462891 18.32421875 4.43359375 C19.60652891 7.05680548 19.60652891 7.05680548 22 9 C28.25403916 10.34773797 34.44103547 10.16848384 40.8125 10.0625 C42.57227751 10.06557569 44.33205291 10.07269243 46.09179688 10.08398438 C50.3959126 10.10280044 54.69638619 10.0661997 59 10 C58.07207278 17.41956748 55.48869759 22.39374287 52 29 C43.75 29 35.5 29 27 29 C27 29.99 27 30.98 27 32 C34.59 32 42.18 32 50 32 C50 33.65 50 35.3 50 37 C49 38 49 38 46.31616211 38.11352539 C45.14835205 38.10828857 43.98054199 38.10305176 42.77734375 38.09765625 C41.51728516 38.09443359 40.25722656 38.09121094 38.95898438 38.08789062 C37.61848891 38.07953403 36.27799412 38.07106907 34.9375 38.0625 C33.59310058 38.0574866 32.2486994 38.05292342 30.90429688 38.04882812 C27.60282059 38.03699488 24.30143197 38.02050971 21 38 C18.76014806 32.15486086 16.71829002 26.27456409 14.8125 20.3125 C14.53986328 19.48427734 14.26722656 18.65605469 13.98632812 17.80273438 C12.69976504 13.77537273 11.60723995 10.28544852 12 6 C11.21753906 6.01160156 10.43507813 6.02320313 9.62890625 6.03515625 C8.61699219 6.04417969 7.60507812 6.05320312 6.5625 6.0625 C5.55316406 6.07410156 4.54382813 6.08570313 3.50390625 6.09765625 C1 6 1 6 0 5 C0 3.35 0 1.7 0 0 Z " fill="#F9FBFE" transform="translate(13,30)"/>
<path d="M0 0 C2.00720923 0.28674418 4.0085944 0.61866701 6 1 C6.04254356 2.99954746 6.04080783 5.00041636 6 7 C5 8 5 8 2.5625 8.1875 C0 8 0 8 -2 6 C-1.44444444 1.44444444 -1.44444444 1.44444444 0 0 Z " fill="#F1F6FE" transform="translate(59,73)"/>
<path d="M0 0 C1.875 0.6875 1.875 0.6875 2.875 1.6875 C3 4.1875 3 4.1875 2.875 6.6875 C1.875 7.6875 1.875 7.6875 -1.1875 7.75 C-2.156875 7.729375 -3.12625 7.70875 -4.125 7.6875 C-4.455 5.7075 -4.785 3.7275 -5.125 1.6875 C-2.125 -0.3125 -2.125 -0.3125 0 0 Z " fill="#F0F5FE" transform="translate(34.125,72.3125)"/>
</svg>
